<svg width="24" height="24" xmlns="http://www.w3.org/2000/svg" viewBox="0 0 24 24" fill-rule="evenodd" clip-rule="evenodd"><path d="M20.332 23h-6.999l-2.226-6.543a.814.814 0 00-.732-.457H10v-1h3.729l2.056-3.738a.548.548 0 11.934.572L14.978 15h4.044l-1.741-3.166a.548.548 0 01.934-.572L20.271 15H24v1h-.374a.814.814 0 00-.733.459L20.332 23zm-8.396-1H0c0-.277-.002-2.552-.004-2.803-.008-2.111.083-3.319 2.514-3.88 2.663-.614 5.801-1.165 4.537-3.495C3.303 4.916 5.98 1 10.001 1c3.942 0 6.686 3.771 2.952 10.822L11.862 14H10a1 1 0 00-1 1v1a1 1 0 001 1h.236l1.7 5zm3.546-4.426a.5.5 0 00-1 0v3a.5.5 0 001 0v-3zm2-.074a.5.5 0 00-1 0v3a.5.5 0 001 0v-3zm2.036 0a.5.5 0 00-1 0v3a.5.5 0 001 0v-3z"/></svg>