<svg width="24" height="24" xmlns="http://www.w3.org/2000/svg" viewBox="0 0 24 24" fill-rule="evenodd" clip-rule="evenodd"><path d="M18.305 20.418a6.45 6.45 0 01-3.411.97c-3.588 0-6.5-2.919-6.5-6.514s2.912-6.513 6.5-6.513c3.587 0 6.5 2.918 6.5 6.513a6.492 6.492 0 01-.967 3.419L24 21.873l-2.121 2.126-3.574-3.581zm-8.904-.436a9.997 9.997 0 01-7.716-4.427l4.349-2.511c.38.493.849.914 1.383 1.237a7.473 7.473 0 001.984 5.701zm5.493-9.592c2.484 0 4.5 2.02 4.5 4.509 0 2.489-2.016 4.509-4.5 4.509s-4.5-2.02-4.5-4.509a4.506 4.506 0 014.5-4.509zm-1.5 6.989h-1v-2.004h1v2.004zm2 0h-1v-3.006h1v3.006zm2 0h-1v-4.96h1v4.96zM9.5.012v5.013a5.003 5.003 0 00-3.993 7.169l-4.336 2.503A9.954 9.954 0 010 10C0 4.649 4.213.273 9.5.012zm4.772 7.391A5.002 5.002 0 0010.5 5.025V.012c5.077.251 9.164 4.296 9.48 9.356a7.468 7.468 0 00-5.708-1.965z"/></svg>